<?xml version="1.0" standalone="no"?>
<!DOCTYPE svg PUBLIC "-//W3C//DTD SVG 20010904//EN"
 "http://www.w3.org/TR/2001/REC-SVG-20010904/DTD/svg10.dtd">
<svg version="1.0" xmlns="http://www.w3.org/2000/svg"
 width="800.000000pt" height="600.000000pt" viewBox="0 0 800.000000 600.000000"
 preserveAspectRatio="xMidYMid meet">

<g transform="translate(0.000000,600.000000) scale(0.100000,-0.100000)"
fill="#000000" stroke="none">
<path d="M0 3000 l0 -3000 4000 0 4000 0 0 3000 0 3000 -4000 0 -4000 0 0
-3000z m5566 2361 c23 -10 54 -36 70 -57 l29 -37 0 -457 0 -457 -29 -37 c-16
-21 -48 -47 -72 -57 -41 -19 -98 -19 -1833 -19 -1241 0 -1798 3 -1818 11 -34
13 -80 55 -99 91 -11 22 -14 108 -14 468 0 360 3 446 14 468 18 35 64 78 96
91 16 6 655 10 1820 10 1732 1 1796 0 1836 -18z m-2766 -1151 c0 -5 -2 -10 -4
-10 -3 0 -8 5 -11 10 -3 6 -1 10 4 10 6 0 11 -4 11 -10z m2458 -45 c-3 -3 -9
2 -12 12 -6 14 -5 15 5 6 7 -7 10 -15 7 -18z m545 -115 l1027 0 0 -285 0 -285
-2310 -1 c-1270 -1 -2319 -1 -2330 -1 -11 0 -42 0 -70 1 l-50 1 0 285 0 285
408 2 c224 2 832 2 1352 1 520 -2 1407 -3 1973 -3z m-2453 -835 l0 -65 -135 0
-135 0 0 -70 0 -70 -135 0 -135 0 0 135 0 135 270 0 270 0 0 -65z m740 -5 l0
-70 -135 0 -135 0 0 -65 0 -65 -135 0 -135 0 0 135 0 135 270 0 270 0 0 -70z
m1088 35 c-3 -3 -9 2 -12 12 -6 14 -5 15 5 6 7 -7 10 -15 7 -18z m-2967 -272
c13 -17 13 -17 -6 -3 -11 8 -22 16 -24 17 -2 2 0 3 6 3 6 0 17 -8 24 -17z
m2419 -198 l0 -135 -270 0 -270 0 0 -65 0 -65 -270 0 -270 0 0 135 0 135 270
0 270 0 0 65 0 65 270 0 270 0 0 -135z m500 -8 c0 -4 -6 -2 -14 5 -8 7 -12 17
-9 22 5 8 23 -12 23 -27z m160 -12 c-7 -8 -17 -15 -22 -15 -11 0 14 29 26 30
5 0 3 -7 -4 -15z m-3153 -21 c-3 -3 -12 -4 -19 -1 -8 3 -5 6 6 6 11 1 17 -2
13 -5z m160 -10 c-3 -3 -12 -4 -19 -1 -8 3 -5 6 6 6 11 1 17 -2 13 -5z m269
-384 c55 -28 114 -90 114 -120 0 -6 4 -9 8 -6 5 3 8 -3 8 -12 0 -9 1 -32 2
-49 l2 -33 454 0 c436 0 455 1 461 19 3 10 5 23 3 27 -5 18 40 100 72 131 73
71 186 93 278 53 56 -24 118 -84 134 -131 5 -16 13 -29 17 -29 4 0 5 -16 3
-35 l-4 -35 209 0 c153 0 213 3 222 13 11 10 13 9 7 -1 -6 -10 61 -12 326 -11
183 0 372 0 420 0 l87 -1 -162 -162 c-90 -90 -294 -297 -454 -461 l-291 -298
-566 1 c-449 0 -566 -2 -567 -12 0 -10 -2 -10 -5 -1 -4 9 -251 12 -1086 13
-595 0 -1082 1 -1084 2 -1 2 115 122 258 268 142 146 343 352 445 458 l187
192 63 0 c54 0 65 4 63 23 0 1 8 27 19 59 11 31 16 59 13 63 -4 4 -2 5 4 3 6
-1 26 12 44 30 75 78 192 95 296 42z m2262 -55 c-3 -3 -9 2 -12 12 -6 14 -5
15 5 6 7 -7 10 -15 7 -18z m-1908 -5 c0 -5 -5 -10 -11 -10 -5 0 -7 5 -4 10 3
6 8 10 11 10 2 0 4 -4 4 -10z m0 -34 c0 -3 -4 -8 -10 -11 -5 -3 -10 -1 -10 4
0 6 5 11 10 11 6 0 10 -2 10 -4z m621 -1139 c-10 -9 -11 -8 -5 6 3 10 9 15 12
12 3 -3 0 -11 -7 -18z m-2285 -49 c4 -7 4 -10 -1 -6 -4 4 -17 3 -29 -3 -20
-10 -20 -10 -2 5 24 19 23 19 32 4z m1919 -38 c13 -6 15 -9 5 -9 -8 0 -22 4
-30 9 -18 12 -2 12 25 0z m-135 -30 c0 -5 -5 -10 -11 -10 -5 0 -7 5 -4 10 3 6
8 10 11 10 2 0 4 -4 4 -10z m600 6 c0 -2 -7 -7 -16 -10 -8 -3 -12 -2 -9 4 6
10 25 14 25 6z m-2440 -80 c0 -3 -4 -8 -10 -11 -5 -3 -10 -1 -10 4 0 6 5 11
10 11 6 0 10 -2 10 -4z m3220 -40 c0 -3 -4 -8 -10 -11 -5 -3 -10 -1 -10 4 0 6
5 11 10 11 6 0 10 -2 10 -4z m-3232 -271 c-3 -3 -9 2 -12 12 -6 14 -5 15 5 6
7 -7 10 -15 7 -18z m93 -8 c-10 -9 -11 -8 -5 6 3 10 9 15 12 12 3 -3 0 -11 -7
-18z m3132 -2 c-3 -9 -8 -14 -10 -11 -3 3 -2 9 2 15 9 16 15 13 8 -4z m-2333
-5 c3 -3 24 -18 48 -34 24 -16 47 -37 53 -47 12 -24 13 -303 0 -327 -6 -11
-34 -34 -62 -53 -120 -77 -283 -37 -355 87 -21 35 -28 63 -31 118 -4 63 -1 77
24 125 50 98 130 142 248 139 39 -1 72 -5 75 -8z m2225 -290 c3 -6 -1 -7 -9
-4 -18 7 -21 14 -7 14 6 0 13 -4 16 -10z m160 -110 c3 -5 1 -10 -4 -10 -6 0
-11 5 -11 10 0 6 2 10 4 10 3 0 8 -4 11 -10z m-33 -37 c-6 -2 -9 -10 -6 -15 4
-7 2 -8 -5 -4 -13 9 -5 26 12 25 9 0 8 -2 -1 -6z"/>
<path d="M2933 1935 c-29 -15 -53 -30 -53 -34 0 -5 -9 -18 -20 -31 -51 -58
-34 -110 49 -152 97 -49 257 -34 323 29 36 34 36 75 2 125 -42 59 -85 81 -173
85 -67 4 -82 1 -128 -22z"/>
<path d="M4400 1954 c-46 -17 -90 -38 -90 -43 0 -3 -12 -19 -26 -34 -14 -15
-28 -43 -31 -62 -5 -31 -1 -39 29 -68 44 -41 95 -57 184 -57 89 0 136 14 179
52 43 38 46 76 9 130 -41 59 -85 81 -168 84 -39 2 -78 1 -86 -2z"/>
<path d="M2378 1870 c0 -3 -1 -21 -2 -40 -1 -34 -2 -35 -68 -52 -95 -25 -156
-56 -199 -101 -89 -91 -51 -200 91 -268 74 -36 143 -49 253 -49 296 0 478 178
330 322 -46 44 -127 84 -205 99 l-58 12 0 41 0 41 -70 0 c-38 0 -71 -2 -72 -5z"/>
<path d="M3796 1834 l2 -42 -59 -11 c-205 -41 -312 -175 -230 -290 25 -35 97
-81 166 -105 64 -23 250 -33 325 -17 118 25 227 97 250 167 33 100 -82 211
-252 245 l-58 12 0 41 0 41 -73 0 -74 0 3 -41z"/>
</g>
</svg>
