<span name="epic-logo" class="sc-iBPTik jUHlxN sc-bkzYnD bEiEtT"><svg viewBox="0 0 20 23" fill="none" xmlns="http://www.w3.org/2000/svg" size="10" class="sc-fubCzh ljiSme">
<g transform="translate(0.000000,488.000000) scale(0.100000,-0.100000)"
fill="#000000" stroke="none">
<path d="M2315 4864 c-242 -19 -428 -55 -640 -125 -715 -237 -1287 -807 -1530
-1524 -91 -270 -120 -457 -120 -780 1 -216 4 -268 24 -384 92 -537 334 -993
722 -1366 374 -359 858 -588 1389 -656 228 -30 577 -12 815 42 797 181 1456
754 1738 1510 239 638 205 1325 -94 1935 -116 236 -264 440 -463 639 -383 382
-863 619 -1396 690 -111 15 -361 25 -445 19z m460 -78 c253 -37 493 -112 716
-222 718 -356 1197 -1028 1305 -1829 20 -147 19 -447 -1 -599 -72 -543 -321
-1033 -717 -1412 -593 -565 -1427 -782 -2224 -579 -651 166 -1211 614 -1517
1211 -462 904 -302 1995 398 2723 195 203 403 355 659 482 273 136 538 210
871 243 81 8 413 -4 510 -18z"/>
<path d="M2273 4769 c-784 -56 -1494 -512 -1876 -1204 -150 -272 -246 -583
-278 -900 -16 -166 -7 -455 21 -615 149 -857 753 -1559 1574 -1829 586 -192
1205 -149 1761 124 617 302 1070 862 1235 1525 54 215 65 314 65 570 0 262
-12 356 -70 585 -201 788 -814 1422 -1600 1656 -144 43 -341 77 -512 89 -162
11 -159 11 -320 -1z m552 -178 c610 -117 1105 -442 1440 -946 613 -922 434
-2166 -415 -2877 -322 -270 -720 -444 -1145 -499 -132 -17 -429 -14 -560 6
-387 58 -723 199 -1040 438 -114 86 -318 294 -411 420 -369 494 -513 1131
-393 1732 168 835 801 1495 1627 1697 202 49 291 57 552 54 188 -3 257 -8 345
-25z"/>
<path d="M1936 4355 c-71 -20 -156 -76 -199 -131 -43 -57 -77 -155 -77 -225 0
-62 32 -159 71 -215 118 -172 361 -199 532 -60 64 52 115 147 119 221 l3 50
-105 0 -105 0 -6 -38 c-10 -63 -78 -117 -146 -117 -80 1 -159 95 -150 179 12
110 134 174 216 114 l30 -23 59 78 c32 42 62 82 66 89 10 17 -60 61 -125 79
-65 17 -118 17 -183 -1z"/>
<path d="M2875 4331 c-70 -18 -126 -64 -161 -131 -9 -19 -47 -135 -84 -258
-66 -221 -67 -224 -46 -232 35 -13 162 -50 173 -50 5 0 17 32 27 70 10 39 23
73 27 76 12 7 79 -15 79 -26 0 -4 -9 -37 -20 -72 -11 -34 -20 -66 -20 -70 0
-7 191 -70 196 -65 1 1 33 101 69 222 95 313 98 397 15 468 -62 53 -185 86
-255 68z m90 -215 c17 -12 18 -18 7 -67 -18 -79 -22 -83 -70 -70 l-40 11 14
47 c26 86 50 108 89 79z"/>
<path d="M3468 3702 c-135 -125 -247 -230 -247 -233 -1 -8 164 -195 222 -252
21 -20 61 -50 90 -65 47 -24 62 -27 152 -27 92 0 104 2 154 30 72 40 138 108
170 175 20 45 25 70 25 132 -1 122 -35 180 -239 401 -35 37 -67 67 -71 67 -5
-1 -120 -103 -256 -228z m296 -103 c84 -98 85 -166 6 -233 -66 -55 -125 -47
-205 26 -31 28 -54 55 -53 59 4 12 200 189 209 189 4 0 23 -18 43 -41z"/>
<path d="M1092 3864 c-37 -18 -85 -60 -161 -142 l-110 -116 197 -191 c108
-105 221 -213 250 -240 l54 -49 71 72 70 73 -99 100 -99 100 100 -37 c55 -20
120 -43 143 -51 l44 -16 74 74 c41 40 74 76 74 79 0 3 -63 30 -140 60 -139 54
-140 55 -140 86 0 49 -28 115 -63 153 -70 74 -172 91 -265 45z m122 -203 c21
-23 15 -49 -19 -81 l-25 -24 -36 35 -35 34 31 28 c36 32 60 34 84 8z"/>
<path d="M2326 3489 c-467 -49 -858 -428 -926 -898 -17 -113 -8 -313 19 -413
93 -357 370 -644 726 -755 86 -26 99 -27 295 -28 184 0 213 2 285 23 175 50
355 158 484 291 57 60 181 232 181 253 0 4 -209 113 -465 240 -256 128 -465
235 -465 238 0 3 209 110 465 238 l465 232 -21 43 c-71 139 -198 278 -339 369
-154 100 -292 148 -481 168 -111 11 -109 11 -223 -1z"/>
<path d="M658 3131 c-51 -17 -87 -52 -117 -114 -71 -148 -40 -281 82 -351 39
-22 494 -162 501 -154 4 3 56 184 56 192 0 2 -34 14 -75 27 -41 12 -75 27 -75
34 0 27 23 76 34 72 40 -15 137 -39 142 -34 11 10 62 187 55 191 -3 2 -109 34
-236 71 -229 67 -315 82 -367 66z m167 -223 c48 -13 51 -18 34 -67 -13 -36
-10 -36 -76 -16 -60 18 -78 36 -69 70 7 29 37 33 111 13z"/>
<path d="M3959 3016 c-179 -46 -226 -68 -259 -120 -34 -57 -36 -112 -5 -236
l28 -112 36 7 c89 16 151 39 151 54 0 9 -7 41 -15 71 -21 77 -19 107 5 113 27
7 44 -21 61 -97 7 -32 18 -60 26 -63 12 -5 131 21 140 31 2 2 -3 31 -11 64
-20 76 -20 98 1 106 25 10 43 -15 64 -89 10 -37 21 -70 23 -72 2 -3 45 6 95
18 64 17 91 28 91 39 0 25 -49 199 -64 228 -33 63 -99 102 -171 102 -16 -1
-105 -20 -196 -44z"/>
<path d="M3923 1980 c-92 -56 -82 -202 17 -253 91 -47 204 26 204 131 0 56
-28 103 -74 127 -41 21 -109 19 -147 -5z"/>
<path d="M793 1975 c-63 -27 -95 -114 -68 -181 40 -101 164 -123 240 -44 39
41 47 123 16 173 -37 61 -118 83 -188 52z"/>
<path d="M3295 1495 c-31 -12 -235 -161 -279 -205 -5 -5 38 -68 105 -152 62
-79 158 -200 212 -270 60 -77 104 -125 111 -121 26 16 243 192 263 214 29 32
53 91 53 131 -1 100 -117 210 -204 194 l-31 -6 0 53 c-2 126 -114 205 -230
162z m83 -220 c2 -12 -8 -31 -22 -44 l-25 -24 -20 24 c-26 31 -26 35 2 54 29
20 61 15 65 -10z m186 -172 c5 -12 -6 -29 -34 -57 l-41 -41 -19 25 c-11 14
-20 28 -20 31 0 11 74 59 91 59 9 0 20 -8 23 -17z"/>
<path d="M1389 1447 c-102 -43 -157 -95 -205 -193 -25 -51 -28 -71 -28 -149 0
-78 3 -98 28 -147 51 -106 153 -183 278 -209 81 -18 210 14 253 61 16 18 14
23 -46 98 l-62 80 -40 -21 c-36 -18 -44 -19 -86 -8 -121 32 -156 158 -71 255
84 95 250 40 250 -81 l0 -33 64 0 c35 0 85 3 111 7 l47 6 -6 51 c-15 112 -91
212 -204 268 -89 44 -201 50 -283 15z"/>
<path d="M2070 1256 c0 -2 -31 -108 -70 -235 -76 -252 -83 -306 -51 -376 23
-53 66 -88 138 -115 112 -42 106 -44 134 57 13 48 24 92 24 96 0 5 -18 15 -40
23 -49 16 -67 39 -58 73 3 14 32 112 64 218 33 106 59 194 59 197 0 2 -24 12
-52 20 -29 9 -74 22 -100 30 -27 8 -48 14 -48 12z"/>
<path d="M2802 1240 c-45 -9 -86 -20 -89 -24 -4 -4 12 -105 36 -226 23 -120
41 -229 39 -242 -4 -27 -48 -37 -66 -15 -7 8 -32 115 -57 237 -25 123 -47 225
-49 227 -8 9 -189 -32 -193 -43 -2 -7 17 -117 42 -246 51 -256 71 -309 138
-362 37 -30 43 -31 130 -31 75 0 100 4 132 22 85 45 135 123 135 210 0 68 -90
513 -104 512 -6 -1 -48 -9 -94 -19z"/>
</g>
</svg>
